<svg width="177" height="85" viewBox="0 0 177 85" fill="none" xmlns="http://www.w3.org/2000/svg">
<path d="M114.247 80.9968H55.1814C34.7592 80.9968 18.1426 64.4111 18.1426 44.0233C18.1426 23.6355 34.7592 7.04984 55.1814 7.04984H114.247C134.67 7.04984 151.283 23.6355 151.283 44.0264C151.283 64.4172 134.67 80.9998 114.247 80.9998V80.9968ZM55.1814 10.6844C36.7673 10.6844 21.7863 25.6402 21.7863 44.0233C21.7863 62.4065 36.7673 77.3622 55.1814 77.3622H114.247C132.662 77.3622 147.642 62.4065 147.642 44.0233C147.642 25.6402 132.662 10.6844 114.247 10.6844H55.1814Z" fill="#C5C695"/>
<path d="M89.7604 46.3418C92.0125 46.3326 93.1386 45.1962 93.1386 42.9357C93.1386 41.7201 92.9555 40.8762 92.5832 40.41C91.9515 39.5966 91.6372 39.1061 91.6372 38.9416C91.6372 38.3018 92.6534 37.9819 94.6889 37.9819C96.1904 37.9819 97.3775 38.0855 98.2472 38.2927C98.8576 38.4358 99.1627 38.7436 99.1627 39.2219C99.1627 39.493 99.0285 39.8403 98.763 40.2638C98.4944 40.6873 98.3418 41.0285 98.296 41.2905C98.2533 41.5525 98.174 42.238 98.058 43.3531C97.9451 44.4681 97.881 45.0683 97.8719 45.1536C97.7284 46.1529 97.4599 46.8323 97.0631 47.1918C96.6664 47.5513 95.992 47.8712 95.046 48.1514C93.0532 48.7486 91.1977 49.0471 89.4796 49.0471H88.8265C87.3037 49.0471 85.8328 48.7547 84.4168 48.1667C81.6855 47.0364 79.8117 45.1201 78.8016 42.4147C78.2798 41.0133 78.0173 39.5143 78.0173 37.9149V37.2294C78.0173 35.7091 78.3195 34.2194 78.9298 32.7631C80.1688 29.7744 82.2104 27.7423 85.0516 26.6669C86.3577 26.1672 87.8378 25.9174 89.4918 25.9174C90.0137 25.9174 90.624 25.9661 91.3198 26.0636C92.0156 26.1611 92.9006 26.2099 93.9717 26.2099C95.0429 26.2099 95.8974 26.4475 96.5352 26.9197C97.173 27.3919 97.4904 28.2298 97.4904 29.4393C97.4904 31.0996 97.1639 31.9344 96.5108 31.9344C96.2056 31.9344 95.4885 31.5109 94.3563 30.6609C93.2241 29.814 92.3513 29.2595 91.744 29.0005C91.1336 28.7385 90.328 28.6075 89.327 28.6075C88.3261 28.6197 87.4227 28.8634 86.6171 29.3418C84.2215 30.7737 83.0252 33.4151 83.0252 37.2629C83.0252 39.9896 83.6722 42.1862 84.9692 43.8466C86.2661 45.51 87.8591 46.3418 89.7543 46.3418H89.7604Z" fill="#C5C695"/>
<path d="M67.9161 35.2004C69.5671 35.2004 70.6077 35.3222 71.0411 35.5599L71.4805 35.9681C71.4805 36.3611 71.2639 36.812 70.8275 37.3299C70.3911 37.8448 70.1408 38.1921 70.0767 38.3658C69.8265 38.9964 69.7014 39.8769 69.7014 41.0072C69.7014 42.1375 69.7166 43.088 69.7502 43.8588L69.9119 46.7439C69.9669 48.0387 69.9943 49.4859 69.9943 51.0945C69.9943 52.7031 70.0676 53.7115 70.2141 54.1167C70.3606 54.5249 70.6474 54.9088 71.0716 55.2652L72.0024 56.0787C72.0024 56.6972 71.3493 57.0079 70.0432 57.0079C68.2243 57.0079 66.787 56.886 65.7311 56.6484C64.9804 56.4748 64.605 56.1335 64.605 55.6217L64.7179 55.1647C65.1207 53.8912 65.3222 52.9407 65.3222 52.304C65.3222 51.6672 65.2489 50.4699 65.1024 48.709C64.9559 46.9511 64.8827 45.3669 64.8827 43.9685C64.8827 42.5701 64.8278 41.8663 64.721 41.8663C64.4372 41.8663 63.6162 43.6821 62.2552 47.3106C60.8941 50.9391 59.9542 53.2667 59.4323 54.2873C58.6694 55.7862 57.9217 56.5357 57.1863 56.5357C56.4508 56.5357 55.8618 56.0848 55.4132 55.183L55.0378 54.2873C54.9158 53.9826 54.5587 53.0626 53.9606 51.5301L52.508 47.862C50.9638 43.9715 50.0239 42.0278 49.6912 42.0278C49.3586 42.0278 49.1938 43.5206 49.1938 46.5093C49.1938 47.9321 49.2213 49.1446 49.2762 50.1439L49.4074 51.8561C49.4501 52.4106 49.4715 52.9651 49.4715 53.5165L49.5356 54.2995L49.618 54.9515C49.6515 55.2896 49.6668 55.7344 49.6668 56.2859L49.3891 56.6118C48.8886 56.9713 48.202 57.1511 47.3322 57.1511C45.2967 57.1511 44.2805 56.8952 44.2805 56.3834C44.2805 56.167 44.488 55.771 44.9092 55.1952C45.3273 54.6194 45.6202 54.074 45.782 53.5561C45.9437 53.0412 46.0261 51.9079 46.0261 50.1592L46.0597 49.1995L46.1268 48.2215C46.2794 45.178 46.3557 43.1489 46.3557 42.1253C46.3557 41.1016 46.2885 40.2943 46.1512 39.6972C46.0139 39.1 45.7057 38.3993 45.2204 37.6011C44.7352 36.8029 44.4941 36.2301 44.4941 35.8798L44.8359 35.4898C45.2937 35.1547 45.7728 34.9841 46.2733 34.9841H47.1552C48.2325 34.9841 49.2335 35.1943 50.1581 35.6117C51.0828 36.0291 51.7847 36.5866 52.2638 37.2842L52.7216 38.0337C53.0908 38.6979 53.4662 39.5265 53.8477 40.5197C54.2291 41.516 54.7815 42.8291 55.5109 44.4651C56.2402 46.1011 56.8658 47.3471 57.3877 48.2063L57.8119 48.7425C58.117 48.7425 59.1638 46.8262 60.9551 42.9905C62.7465 39.1549 63.8329 37.0192 64.2144 36.5866C65.0292 35.6635 66.2621 35.2004 67.9131 35.2004H67.9161Z" fill="#C5C695"/>
<path d="M111.223 37.5645C110.32 37.5645 109.368 37.9789 108.367 38.8015C106.768 40.1267 105.922 40.7909 105.837 40.7909C105.269 40.7909 104.985 40.4405 104.985 39.7307V39.2249C104.985 38.052 105.083 36.9918 105.278 36.0443C105.376 35.5568 105.596 35.2613 105.941 35.1638C106.282 35.0663 109.557 35.0176 115.761 35.0176L121.886 34.9841H122.963C124.138 34.9841 124.837 35.176 125.063 35.5538C125.285 35.9346 125.398 36.7663 125.398 38.0489V39.0939C125.398 40.2455 125.133 40.8213 124.599 40.8213C124.132 40.8213 123.564 40.4466 122.899 39.6972C122.234 38.9477 121.626 38.4084 121.071 38.0733C120.516 37.7412 119.786 37.5767 118.886 37.5767C118.166 37.5767 117.748 38.0489 117.629 38.9964C117.586 39.3224 117.565 41.7475 117.565 46.2717C117.565 50.7959 117.626 53.3063 117.745 53.7937C117.867 54.2812 118.312 54.8083 119.084 55.3658C119.856 55.9264 120.244 56.3986 120.244 56.7825C120.244 57.1663 120.049 57.4101 119.658 57.5075C119.267 57.605 117.998 57.6538 115.853 57.6538H113.109C112.032 57.6538 111.293 57.6142 110.9 57.5411C110.503 57.4649 110.301 57.2486 110.301 56.8891C110.301 56.5296 110.671 56.0208 111.412 55.3566C112.151 54.6925 112.587 54.1167 112.718 53.6201C112.85 53.1265 112.914 50.6618 112.914 46.2291C112.914 41.7963 112.871 39.3529 112.783 38.902C112.697 38.4511 112.544 38.116 112.334 37.8936C112.123 37.6712 111.754 37.5584 111.232 37.5584L111.223 37.5645Z" fill="#C5C695"/>
<path d="M88.7532 65.7425C89.3453 65.7943 89.9342 65.7699 90.4622 65.5201C92.3787 64.6061 93.2637 61.2914 92.6289 59.4299C91.6066 56.4382 86.3179 56.426 85.1552 59.2563C84.8226 60.0667 84.49 60.5602 84.4045 61.4711C84.3038 62.51 84.2947 63.0584 84.9935 63.8323C85.6862 64.5969 86.0921 65.4134 87.1389 65.5262C87.6485 65.581 88.2009 65.6968 88.7502 65.7425H88.7532Z" fill="#C5C695"/>
</svg>
