<svg width="166" height="167" viewBox="0 0 166 167" fill="none" xmlns="http://www.w3.org/2000/svg">
<path d="M64.4971 38.3369C65.3491 39.1927 65.8173 40.3286 65.8173 41.5297V57.8392C65.8173 62.8779 65.6791 67.8821 65.6638 72.9284C66.2164 72.9015 66.769 72.8708 67.3216 72.844C67.3331 72.844 66.8879 62.686 66.8994 61.7727C66.9186 59.6429 66.9455 57.5131 66.9455 55.3832V41.2803C66.9455 40.8735 67.2371 40.6701 67.4866 40.6241C67.7322 40.5742 68.0814 40.651 68.2349 41.0309L82.7484 76.8964C82.9211 77.3185 83.4699 77.4951 83.8536 77.2571C83.9764 77.1804 84.0762 77.0729 84.1376 76.9425L101.383 40.9887C101.548 40.6509 101.871 40.5934 102.101 40.6433C102.331 40.697 102.596 40.8889 102.596 41.265V71.7119C102.596 72.9169 102.128 74.049 101.276 74.9047C100.424 75.7567 99.2882 76.2248 98.0794 76.2248H97.8798V77.3761H111.971V76.2248H111.772C109.281 76.2248 107.255 74.1986 107.255 71.7119V41.5336C107.255 40.3286 107.723 39.1965 108.575 38.3446C109.427 37.4927 110.559 37.0245 111.764 37.0245H111.964V35.8732H102.788L102.658 35.8809L87.9982 66.4315C87.6374 67.1836 86.9045 67.6441 86.0756 67.6441C86.0525 67.6441 86.0295 67.6441 86.0103 67.6441C85.1469 67.6173 84.4101 67.1069 84.0839 66.3087L71.8422 35.9999L71.7923 35.8771H61.0933V37.0283H61.2928C62.5016 37.0283 63.6337 37.4965 64.4856 38.3484L64.4971 38.3369Z" fill="#4B63A8"/>
<path d="M57.0063 97.1854C55.9932 97.3082 55.0684 98.068 54.8112 99.0543C54.7422 99.3152 54.7268 99.58 54.7537 99.841C54.8381 100.735 55.3907 101.61 55.9779 102.232C56.6149 102.907 57.5397 103.375 58.4569 103.23C59.6043 103.045 60.4371 101.898 60.5061 100.739C60.6136 98.8547 58.9941 96.9398 57.0101 97.1777L57.0063 97.1854Z" fill="#4B63A8"/>
<path d="M85.5498 118.821C85.9183 118.054 85.9912 117.175 85.949 116.323C85.8146 113.683 84.6135 111.185 82.9979 109.089C81.2365 106.806 78.9416 104.726 76.8463 102.688C76.7235 102.569 76.6007 102.447 76.4779 102.328C74.2714 100.16 71.8384 98.1333 69.2365 96.3795C69.9426 89.8596 70.2036 83.6965 69.1176 77.0039C69.0638 76.5011 68.8796 76.0215 68.5381 75.607C66.3354 73.0243 62.4479 76.2479 64.5586 78.8881C68.116 83.3895 69.5972 89.9785 68.0277 95.589C67.8627 95.4854 67.7015 95.3664 67.5327 95.2667C64.0175 93.1368 60.2682 91.3869 56.6418 89.4643C59.9382 84.9168 61.3351 82.2728 60.4025 79.6518C59.3818 76.9156 55.763 75.868 51.983 77.2149C47.8845 78.6732 45.7278 82.3917 46.9673 85.8609C47.8845 88.4359 50.0911 90.0898 53.5871 92.0508C49.2161 98.0028 47.5814 102.658 48.7288 105.881C50.1602 109.899 54.5196 111.507 59.3242 109.796C61.2123 109.124 62.801 107.861 64.0942 106.353C64.8694 105.448 65.5832 104.492 66.2855 103.525C66.6347 103.041 66.9839 102.558 67.3369 102.074C67.667 101.622 67.8934 101.211 68.4306 100.996C69.0523 100.75 69.7661 100.835 70.3839 101.081C71.6196 101.576 72.909 102.416 74.0296 103.137C77.6752 105.478 80.1773 109.174 80.2694 113.591C80.3001 115.041 80.0967 116.527 80.5035 117.916C80.9103 119.309 82.2035 120.598 83.6349 120.364C84.4753 120.226 85.1738 119.581 85.5422 118.81L85.5498 118.821ZM50.0719 83.4816C49.243 81.1522 50.1985 78.8305 52.2938 78.0822C54.251 77.3838 56.3501 78.6003 57.1713 80.9066C58.0616 83.4049 57.6625 85.834 55.832 89C52.3629 87.016 50.7934 85.5117 50.0719 83.4816ZM66.604 100.862C65.0766 103.936 63.0312 105.946 60.5215 106.841C56.6725 108.211 53.1189 106.733 51.8794 103.249C50.9776 100.72 51.5494 97.5807 53.5717 93.9197C53.7713 93.559 54.0936 93.3018 54.4544 93.1714C54.8765 93.0217 55.3562 93.0409 55.7745 93.2673L65.9017 98.7012C66.6769 99.1195 66.9916 100.087 66.604 100.858V100.862Z" fill="#4B63A8"/>
<path d="M107.666 86.5977V87.7489H111.112C112.62 87.7489 113.99 88.4512 114.865 89.6792C115.744 90.9072 115.966 92.4269 115.479 93.8544L105.344 123.557C105.152 124.102 104.638 124.47 104.062 124.47C103.786 124.47 103.506 124.382 103.28 124.221C103.045 124.052 102.877 123.822 102.784 123.557L90.1667 86.6015H78.8613V87.7528H79.0609C82.3765 87.7528 85.3199 89.8596 86.3906 92.9948L98.3867 128.108H104.933L119.117 86.6015H107.662L107.666 86.5977Z" fill="#4B63A8"/>
<path d="M159.99 82.5529C159.791 82.5644 159.603 82.6143 159.422 82.6949C158.816 82.9597 158.329 83.5506 158.025 84.1071C157.699 84.7096 157.584 85.4694 157.899 86.0757C158.294 86.8394 159.292 87.1579 160.121 86.9354C161.468 86.5746 162.435 84.9936 161.809 83.6581C161.491 82.975 160.742 82.503 159.99 82.5529Z" fill="#4B63A8"/>
<path d="M165.359 94.3303C165.282 94.6718 165.075 94.9596 164.78 95.1438C164.488 95.328 164.135 95.3894 163.797 95.3088L154.733 93.2251C154.391 93.1483 154.104 92.9411 153.919 92.6456C153.735 92.3501 153.678 92.0009 153.754 91.6632L153.785 91.5174L153.271 91.3984L152.503 94.7409L153.018 94.8599L153.052 94.714C153.129 94.3725 153.336 94.0847 153.632 93.9005C153.931 93.7163 154.28 93.6549 154.614 93.7355L163.755 95.8346C163.843 95.8538 163.847 95.9305 163.847 95.9536C163.847 95.9766 163.836 96.0533 163.747 96.0687L151.966 97.9529C151.836 97.9759 151.736 98.0757 151.709 98.1947C151.694 98.2561 151.697 98.3175 151.717 98.3712C151.736 98.4326 151.774 98.4863 151.82 98.5209L161.429 106.184C161.495 106.234 161.468 106.3 161.46 106.319C161.449 106.342 161.414 106.388 161.337 106.376L152.192 104.273C151.851 104.197 151.563 103.993 151.379 103.698C151.195 103.406 151.133 103.053 151.214 102.711L151.245 102.566L150.73 102.447L149.779 106.587L149.664 106.537L148.263 109.634L148.743 109.857L148.804 109.719C148.838 109.642 148.888 109.565 148.95 109.496C149.007 109.435 149.073 109.377 149.153 109.331C149.337 109.224 149.548 109.216 149.736 109.3C149.894 109.373 150.013 109.5 150.07 109.657L152.169 115.229C152.239 115.414 152.212 115.617 152.093 115.774C151.978 115.928 151.797 116.02 151.598 116.001L147.649 115.732C147.296 115.709 146.989 115.521 146.808 115.218C146.628 114.915 146.609 114.558 146.751 114.239L146.812 114.105L146.333 113.882L144.575 117.762L144.525 117.732L142.054 121.508L142.372 121.715L142.495 121.757L142.579 121.673C142.767 121.381 143.063 121.181 143.401 121.112C143.746 121.047 144.091 121.112 144.379 121.3L147.28 123.204C147.703 123.48 147.822 124.044 147.545 124.47L146.256 126.454C145.523 127.586 145.404 129.018 145.949 130.192C146.252 130.841 146.697 131.347 147.242 131.65C147.729 131.919 148.263 132.046 148.792 132.046C149.867 132.046 150.941 131.516 151.625 130.553L155.285 124.965L155.366 124.842L154.925 124.551L154.844 124.677C154.652 124.969 154.361 125.169 154.019 125.242C153.681 125.314 153.332 125.245 153.041 125.054L145.262 119.957C144.97 119.765 144.771 119.474 144.702 119.132C144.648 118.887 144.694 118.645 144.778 118.418L144.847 118.449L144.909 118.311C145.024 118.058 145.208 117.85 145.446 117.708C145.684 117.567 145.953 117.501 146.229 117.52L158.417 118.372L158.521 118.38L159.775 115.613L159.292 115.394L159.23 115.529C159.135 115.748 158.954 115.913 158.735 115.997C158.517 116.081 158.267 116.074 158.052 115.974C157.96 115.932 157.876 115.874 157.795 115.797L150.377 108.502C149.963 108.095 149.84 107.47 150.063 106.937L150.224 106.975L150.258 106.829C150.335 106.488 150.542 106.2 150.838 106.016C151.133 105.828 151.486 105.766 151.824 105.851L160.892 107.934C161.23 108.011 161.521 108.218 161.706 108.514C161.89 108.809 161.947 109.158 161.871 109.496L161.836 109.642L162.354 109.761L163.007 106.921L163.018 106.867L162.995 106.821L154.817 100.282C154.637 100.136 154.564 99.9177 154.622 99.6913C154.668 99.5148 154.813 99.3114 155.086 99.2692L165.037 97.6843L165.136 97.6689L165.908 94.3111L165.394 94.196L165.359 94.3418V94.3303ZM149.264 124.489L153.259 127.107L151.855 129.256C151.041 130.495 149.437 130.963 148.198 130.322C148.105 130.276 148.013 130.223 147.925 130.165C147.453 129.854 147.081 129.421 146.851 128.914C146.448 128.047 146.559 126.953 147.142 126.063L148.002 124.754C148.278 124.336 148.846 124.221 149.268 124.489H149.264ZM153.655 116.147C153.298 116.124 152.987 115.89 152.86 115.556L150.822 110.149C150.784 110.049 150.834 109.972 150.892 109.934C150.953 109.895 151.041 109.884 151.114 109.957L157.692 116.423L153.655 116.147Z" fill="#4B63A8"/>
<path d="M148.079 134.743C147.599 135.277 146.774 135.323 146.24 134.847L139.302 128.642C139.041 128.411 138.888 128.093 138.869 127.744C138.849 127.394 138.965 127.064 139.199 126.803L139.298 126.692L138.903 126.335L131.93 134.137L131.831 134.248L134.091 136.267L133.976 135.799C133.592 134.248 134.003 132.613 135.066 131.424L136.651 129.655C136.984 129.279 137.564 129.248 137.944 129.582L145.17 136.04C145.703 136.52 145.749 137.345 145.277 137.875L145.166 137.986L145.565 138.343L148.474 135.085L148.574 134.974L148.178 134.62L148.079 134.732V134.743Z" fill="#4B63A8"/>
<path d="M139.56 144.019C139.003 144.479 138.182 144.395 137.725 143.842L131.812 136.662C131.593 136.393 131.489 136.056 131.52 135.706C131.555 135.361 131.72 135.046 131.988 134.828L132.103 134.732L131.762 134.321L123.807 140.872L125.871 143.873L126.278 143.535L126.201 143.424C125.25 142.023 125.518 140.15 126.827 139.072L129.736 136.677L132.779 140.369C132.932 140.557 133.005 140.795 132.982 141.037C132.959 141.279 132.84 141.501 132.652 141.655L131.631 142.499C130.795 143.186 129.555 143.067 128.865 142.234L128.769 142.123L128.358 142.453L131.382 146.122L131.789 145.784L131.693 145.669C131.006 144.832 131.125 143.593 131.958 142.906L132.978 142.061C133.37 141.743 133.949 141.8 134.268 142.188L137.299 145.868L134.571 148.117C133.262 149.192 131.374 149.099 130.177 147.894L130.081 147.799L129.674 148.136L132.222 150.734L139.997 144.329L139.663 143.919L139.548 144.015L139.56 144.019Z" fill="#4B63A8"/>
<path d="M117.624 152.949C119.14 150.443 119.62 148.535 119.048 147.269C118.319 145.669 116.477 145.155 114.574 146.022C113.234 146.628 112.071 148.152 111.369 150.212L110.084 149.656C109.922 149.587 109.83 149.441 109.826 149.265C109.826 149.092 109.919 148.946 110.08 148.873L110.214 148.812L109.999 148.332L106.71 149.825L106.572 149.886L106.791 150.362L106.925 150.304C107.014 150.266 107.11 150.266 107.194 150.304L110.951 151.893C110.747 152.822 110.621 154.13 110.609 155.428C110.606 156.072 110.222 156.659 109.635 156.928L109.496 156.989L109.715 157.469L113.875 155.581L113.656 155.101L113.518 155.163C112.966 155.416 112.313 155.17 112.064 154.622C112.048 154.583 112.029 154.541 112.018 154.503C111.726 153.589 111.561 152.768 111.553 152.166L116.235 154.169C115.095 156.068 114.643 157.17 115.115 158.206C115.448 158.912 116.201 159.296 117.099 159.296C117.594 159.296 118.135 159.181 118.672 158.935C119.463 158.574 120.077 158.003 120.399 157.316C120.725 156.625 120.733 155.877 120.426 155.201C119.973 154.203 119.052 153.609 117.624 152.952V152.949ZM114.27 147.407C115.732 146.743 117.122 147.185 117.724 148.505C118.158 149.46 118.035 150.707 117.363 152.212C117.237 152.496 116.903 152.622 116.619 152.503L112.394 150.677C112.114 150.554 111.976 150.228 112.087 149.951C112.586 148.697 113.315 147.841 114.267 147.411L114.27 147.407ZM116.523 157.519C116.224 156.863 116.024 155.98 116.749 154.399C118.127 155.044 118.772 155.573 119.109 156.326C119.313 156.771 119.34 157.243 119.186 157.65C119.052 158.006 118.799 158.279 118.446 158.436C117.736 158.762 116.907 158.367 116.519 157.519H116.523Z" fill="#4B63A8"/>
<path d="M102.519 164.043C101.552 164.204 100.585 163.728 100.117 162.865L94.7176 152.841L94.6677 152.749L92.557 153.102L90.3505 166.407L90.3159 166.614L93.9999 166L93.9155 165.478L92.7796 165.666C92.346 165.739 91.9277 165.601 91.6168 165.294C91.306 164.987 91.1717 164.561 91.2408 164.131L92.818 154.595C92.841 154.457 92.9523 154.349 93.0905 154.326C93.1557 154.319 93.2286 154.326 93.2862 154.353C93.3514 154.384 93.4013 154.434 93.432 154.495L99.1154 165.044L99.1653 165.137L102.746 164.542L102.661 164.02L102.512 164.043H102.519Z" fill="#4B63A8"/>
<path d="M88.4048 166.011C88.4048 166.011 88.3703 166.011 88.3511 166.011C87.6565 166.011 87.0809 165.463 87.054 164.764L86.6856 155.474C86.6741 155.124 86.7931 154.791 87.031 154.537C87.2651 154.28 87.5874 154.134 87.9328 154.123L88.0825 154.115L88.0633 153.582L83.5542 153.762L83.5734 154.288H83.723C84.0684 154.261 84.4023 154.395 84.6556 154.629C84.9127 154.863 85.0623 155.186 85.0739 155.535L85.4423 164.826C85.4691 165.543 84.9088 166.15 84.1989 166.176H84.0416L84.0646 166.71L88.5737 166.53L88.5545 166L88.4048 166.008V166.011Z" fill="#4B63A8"/>
<path d="M79.3909 154.234L79.5367 154.246C79.8783 154.276 80.1891 154.441 80.4078 154.706C80.6266 154.971 80.7302 155.305 80.6995 155.646L79.8169 165.186C79.8053 165.305 79.7286 165.401 79.625 165.428C79.5022 165.47 79.3755 165.401 79.3256 165.286L73.8917 153.19L70.2883 152.856L70.2422 153.386L70.3919 153.397C70.7411 153.428 71.0558 153.597 71.2784 153.866C71.5009 154.134 71.6084 154.476 71.5738 154.821L70.7181 164.073C70.6528 164.787 70.0273 165.313 69.3059 165.252L69.1485 165.225L69.0986 165.762L72.514 166.081L72.5601 165.555L72.4104 165.543C72.065 165.513 71.7504 165.348 71.5278 165.079C71.3052 164.81 71.2016 164.473 71.2323 164.127L72.1149 154.587C72.1226 154.518 72.1533 154.457 72.2109 154.411C72.2608 154.368 72.3222 154.349 72.3989 154.353C72.491 154.361 72.5716 154.422 72.6061 154.503L78.0324 166.595L81.6358 166.929L81.6819 166.403L81.5322 166.388C80.8184 166.318 80.2889 165.685 80.3579 164.971L81.2175 155.696C81.2482 155.355 81.4133 155.044 81.6781 154.825C81.9428 154.606 82.2805 154.499 82.6336 154.533L82.7794 154.545L82.8293 154.019L79.4293 153.704L79.3832 154.234H79.3909Z" fill="#4B63A8"/>
<path d="M69.5855 153.179L69.7198 152.665L59.9034 149.997L59.7691 149.963L58.5143 153.382L59.0285 153.516L59.0745 153.39C59.6694 151.801 61.3502 150.934 62.9888 151.383L66.6268 152.373L65.3719 156.989C65.2414 157.477 64.7349 157.761 64.2514 157.63L62.9696 157.281C62.4631 157.143 62.0409 156.817 61.78 156.364C61.519 155.911 61.45 155.378 61.5881 154.875L61.6265 154.729L61.1123 154.591L59.9034 159.035L59.8651 159.181L60.3755 159.315L60.4138 159.173C60.6978 158.129 61.7838 157.511 62.8276 157.791L64.1055 158.141C64.3396 158.202 64.5392 158.356 64.6581 158.567C64.7809 158.778 64.8116 159.027 64.7464 159.261L63.4954 163.866L60.0838 162.938C58.4452 162.492 57.4321 160.896 57.7237 159.2V159.085L57.2325 158.954L56.584 162.535L66.1663 165.14L66.3121 165.179L66.4503 164.664L66.3044 164.626C65.9706 164.534 65.6904 164.319 65.5177 164.016C65.3451 163.713 65.299 163.364 65.3911 163.03L67.8318 154.054C67.92 153.72 68.1388 153.44 68.4381 153.267C68.7413 153.094 69.0943 153.052 69.4282 153.14L69.574 153.179H69.5855Z" fill="#4B63A8"/>
<path d="M49.8382 146.156L49.9649 146.233C50.2642 146.417 50.4714 146.705 50.552 147.043C50.6326 147.38 50.575 147.733 50.3947 148.029L45.4941 156.022C45.4442 156.103 45.3713 156.084 45.3521 156.072C45.3291 156.065 45.26 156.03 45.2754 155.942L47.2402 144.176C47.2594 144.049 47.198 143.919 47.0905 143.854C46.9908 143.792 46.8603 143.784 46.7452 143.854L36.4222 150.523C36.3531 150.565 36.2994 150.523 36.2879 150.512C36.2726 150.496 36.2303 150.443 36.2687 150.373L41.1731 142.376C41.3534 142.081 41.6413 141.873 41.979 141.789C42.3167 141.708 42.6697 141.766 42.9652 141.946L43.0918 142.023L43.372 141.574L39.7532 139.356L39.8299 139.272L37.3356 136.958L36.9787 137.345L37.0861 137.445C37.1552 137.506 37.2089 137.579 37.2511 137.652C37.2972 137.729 37.324 137.809 37.3432 137.898C37.3854 138.101 37.3279 138.308 37.1859 138.462C37.0669 138.588 36.9096 138.661 36.7369 138.665L30.7849 138.884C30.5815 138.892 30.4088 138.803 30.2975 138.642C30.1862 138.481 30.1632 138.278 30.2361 138.097L31.7443 134.436C31.8786 134.11 32.1549 133.88 32.5003 133.803C32.8418 133.726 33.191 133.822 33.4481 134.064L33.5594 134.164L33.9163 133.776L30.6352 130.733L27.9106 127.122L27.6074 127.352L27.5115 127.452L27.5806 127.567C27.7916 127.843 27.8799 128.185 27.8338 128.53C27.7839 128.876 27.6074 129.179 27.3273 129.39L23.8236 132.042C23.5895 131.673 23.4821 131.24 23.5166 130.81L24.3263 124.163C24.3378 124.006 24.4491 123.921 24.5527 123.891C24.6564 123.86 24.7945 123.879 24.8866 124.002L24.9749 124.121L25.4008 123.802L23.3055 121.032L23.2902 121.043L21.3139 117.175L20.838 117.417L20.9071 117.551C21.0644 117.858 21.0913 118.207 20.9877 118.537C20.8802 118.867 20.6538 119.132 20.3468 119.29L17.2154 120.89C16.8316 121.089 16.3635 120.936 16.1677 120.552C16.0833 120.376 16.0603 120.18 16.1102 119.996L17.9867 113.023C18.0059 112.938 18.0635 112.869 18.1402 112.827C18.2132 112.789 18.3014 112.781 18.3858 112.808C18.4396 112.827 18.5163 112.866 18.5624 112.961L18.6314 113.096L19.1035 112.85L17.7526 110.21L14.7786 100.658L11.2212 101.437L11.3824 101.944L11.5167 101.917C13.1706 101.564 14.8054 102.52 15.3081 104.139L16.4287 107.735L11.8659 109.158C11.628 109.231 11.3862 109.208 11.1674 109.097C10.9525 108.986 10.7914 108.794 10.7185 108.56L10.3232 107.293C10.0008 106.257 10.5803 105.156 11.6164 104.834L11.7584 104.788L11.5973 104.281L7.0613 105.693L7.2148 106.2L7.35678 106.154C8.38908 105.835 9.49429 106.407 9.81664 107.443L10.2119 108.709C10.3616 109.193 10.0891 109.703 9.60941 109.857L5.0581 111.277L4.00278 107.9C3.50007 106.284 4.30211 104.569 5.8755 103.909L5.99062 103.851L5.83712 103.356L2.46777 104.734L5.46488 114.354L5.97144 114.201L5.92539 114.059C5.82177 113.729 5.85247 113.376 6.01365 113.065C6.17483 112.758 6.44729 112.532 6.77732 112.428L15.6574 109.661C15.9874 109.558 16.3404 109.592 16.6513 109.749C16.87 109.865 17.0312 110.053 17.154 110.264C17.1732 110.344 17.177 110.425 17.154 110.505L14.863 119.036L14.8476 119.09L15.3734 120.118C15.4309 120.234 15.3619 120.318 15.3388 120.345C15.3158 120.368 15.2276 120.445 15.1124 120.387L7.22247 116.653C7.09583 116.603 6.99606 116.511 6.93082 116.392L6.86174 116.262L6.39356 116.503L7.97079 119.589L8.4428 119.351L8.37373 119.217C8.30849 119.09 8.32384 118.952 8.41594 118.841C8.48885 118.756 8.61549 118.679 8.769 118.729L15.4962 121.396C15.5691 121.427 15.619 121.488 15.619 121.569C15.619 121.638 15.5921 121.696 15.5422 121.734L12.0347 123.526C11.7277 123.687 11.3747 123.714 11.0446 123.607C10.7146 123.499 10.446 123.269 10.2887 122.962L10.2196 122.828L9.74756 123.069L11.7968 127.084L12.2688 126.842L12.1997 126.707C12.0424 126.4 12.0117 126.047 12.1192 125.717C12.2266 125.387 12.4569 125.119 12.7639 124.961L21.0529 120.725C21.3638 120.567 21.7168 120.537 22.0468 120.644C22.3769 120.752 22.6493 120.982 22.8067 121.293L22.8757 121.427L22.918 121.404L22.9602 121.458C23.0369 121.561 23.0753 121.688 23.0638 121.811L22.1389 129.824L21.997 129.632C21.1335 128.496 19.775 127.889 18.4511 128.039C17.7718 128.12 17.177 128.369 16.7319 128.761C15.4693 129.877 15.2774 131.808 16.2905 133.258L20.2816 138.539L20.7037 138.22L20.6154 138.101C20.4082 137.825 20.3161 137.476 20.366 137.138C20.4159 136.792 20.5924 136.489 20.8687 136.278L28.2905 130.664C28.8469 130.242 29.6413 130.345 30.0826 130.89L30.0558 130.917L30.1671 131.021C30.3704 131.209 30.5086 131.454 30.5662 131.719C30.6237 131.992 30.5969 132.268 30.4932 132.521L25.7731 143.907L27.9988 145.972L28.3596 145.584L28.2483 145.484C27.8876 145.151 27.8645 144.587 28.1984 144.226C28.2675 144.153 28.3519 144.088 28.4478 144.038L37.7231 139.321C38.245 139.057 38.8706 139.137 39.308 139.521L39.2275 139.651L39.3541 139.728C39.9681 140.104 40.16 140.91 39.7839 141.52L34.9217 149.449C34.7414 149.748 34.4536 149.955 34.112 150.036C33.7782 150.116 33.4289 150.063 33.1296 149.878L33.003 149.802L32.7267 150.255L35.2096 151.778L35.2863 151.859L35.3707 151.774L44.1088 146.133C44.3007 146.006 44.5424 146.01 44.7343 146.133C44.9262 146.26 45.0221 146.478 44.9837 146.705L43.3183 156.64L43.2991 156.74L46.2348 158.54L46.5149 158.087L46.3883 158.01C46.089 157.83 45.8817 157.542 45.8011 157.204C45.7206 156.863 45.7743 156.514 45.9585 156.218L50.8168 148.29C51.1929 147.68 51.9949 147.488 52.6089 147.86L52.7355 147.937L53.0119 147.488L50.0877 145.696L49.8152 146.145L49.8382 146.156ZM17.6797 130.104C17.7526 130.031 17.8332 129.966 17.9177 129.9C18.3667 129.559 18.9001 129.355 19.4565 129.309C19.5333 129.302 19.6062 129.298 19.6829 129.298C20.5656 129.298 21.452 129.762 22.043 130.545L23.4092 132.352L18.8694 135.787L17.4495 133.911C16.5553 132.729 16.6551 131.055 17.6797 130.104ZM29.4533 140.005C29.5914 139.674 29.9061 139.452 30.263 139.44L36.0346 139.225H36.0423C36.1421 139.225 36.1958 139.295 36.215 139.36C36.2342 139.425 36.215 139.513 36.1229 139.559L27.9029 143.746L29.4494 140.005H29.4533Z" fill="#4B63A8"/>
<path d="M5.13461 100.724L4.99646 100.731C4.92355 100.735 4.85064 100.739 4.77772 100.739C3.21969 100.739 1.86504 99.6299 1.57339 98.0834L1.44675 97.2852L11.9194 95.6005C12.2609 95.5468 12.6101 95.6274 12.8903 95.8308C13.1704 96.0303 13.3584 96.3335 13.416 96.6827L13.439 96.8285L13.9609 96.7441L13.2433 92.2849L12.7214 92.3693L12.7444 92.5152C12.8557 93.2213 12.3722 93.8928 11.6622 94.008L1.18963 95.6888L1.063 94.8906C0.848094 93.2558 1.88806 91.7131 3.48448 91.3025L3.61495 91.268L3.53053 90.7461L0 91.6325L1.56571 101.376L1.5849 101.51L5.2152 101.246L5.13078 100.724H5.13461Z" fill="#4B63A8"/>
<path d="M0.671676 72.3374C0.748427 71.9997 0.955654 71.7119 1.25114 71.5277C1.54663 71.3435 1.89585 71.2859 2.23739 71.3665L11.2901 73.4771C11.9885 73.6383 12.426 74.3406 12.2648 75.0429L12.2303 75.1887L12.7445 75.3077L13.5236 71.9728L13.0055 71.85L12.971 71.9959C12.8904 72.3374 12.687 72.6252 12.3915 72.8056C12.096 72.9898 11.7468 73.0473 11.4091 72.9668L2.28344 70.8408C2.19518 70.8216 2.19134 70.7448 2.19134 70.7218C2.19134 70.6988 2.20285 70.622 2.29111 70.6105L14.0646 68.7608C14.1951 68.7416 14.2987 68.6419 14.3294 68.5152C14.341 68.4577 14.3371 68.3924 14.3179 68.3387C14.2987 68.2811 14.2604 68.2274 14.2143 68.1929L4.63584 60.5063C4.57444 60.4564 4.59747 60.3912 4.60514 60.372C4.61665 60.3528 4.65119 60.2952 4.72794 60.3144L13.8613 62.4404C14.199 62.521 14.4868 62.7244 14.671 63.0199C14.8552 63.3154 14.9127 63.6646 14.8322 64.0061L14.7976 64.152L15.3118 64.2748L16.2712 60.1533L16.3825 60.2031L17.7947 57.1024L17.3112 56.8837L17.2498 57.018C17.2153 57.0986 17.1654 57.1753 17.104 57.2406C17.0464 57.302 16.9773 57.3595 16.9006 57.4056C16.7202 57.5092 16.5053 57.5207 16.3134 57.4324C16.1561 57.3595 16.0371 57.2329 15.9796 57.0756L13.892 51.492C13.8229 51.3078 13.8536 51.1044 13.9725 50.947C14.0877 50.7935 14.268 50.7014 14.4676 50.7206L18.4202 51.0008C18.7733 51.0238 19.0765 51.2118 19.2568 51.515C19.4372 51.8181 19.4564 52.1789 19.3106 52.4974L19.2491 52.6317L19.7288 52.8543L21.4903 48.986L21.544 49.0206L24.0269 45.2483L23.7084 45.0411L23.5856 44.9989L23.5011 45.0833C23.1059 45.6819 22.3 45.8469 21.6975 45.4517L18.8002 43.5444C18.378 43.2681 18.2629 42.7002 18.5354 42.278L19.8286 40.2979C20.5654 39.1697 20.6882 37.7344 20.1471 36.5601C19.8516 35.9116 19.4065 35.4089 18.8577 35.098C17.3841 34.2806 15.4999 34.7488 14.4753 36.1841L10.8027 41.76L10.7183 41.8828L11.1635 42.1744L11.2441 42.0516C11.6393 41.453 12.4491 41.288 13.0477 41.6832L20.811 46.7948C21.1027 46.9867 21.2984 47.2784 21.3675 47.6199C21.4174 47.8617 21.3751 48.0996 21.2907 48.326L21.2178 48.2953L21.1564 48.4296C21.0413 48.679 20.8532 48.8863 20.6191 49.0283C20.3812 49.1664 20.1164 49.2355 19.8325 49.2125L7.63679 48.326L7.53318 48.3183L6.27447 51.0852L6.75416 51.3078L6.81556 51.1696C6.91534 50.947 7.0957 50.782 7.32595 50.7014C7.54469 50.6208 7.78645 50.6323 7.99752 50.7283C8.08578 50.7667 8.17404 50.8281 8.25079 50.9048L15.6572 58.223C16.0678 58.6298 16.1868 59.2476 15.9719 59.781L15.8184 59.7426L15.7839 59.8885C15.6188 60.5907 14.9127 61.0244 14.2181 60.8594L5.16542 58.7487C4.82772 58.6681 4.53991 58.4647 4.3557 58.1693C4.1715 57.8738 4.11394 57.5245 4.19453 57.1868L4.22906 57.041L3.71484 56.9221L3.05478 59.758V59.8501L11.2172 66.4161C11.3937 66.5581 11.4705 66.7845 11.4091 67.0071C11.363 67.1836 11.2172 67.3832 10.9447 67.4292L0.997867 68.9834L0.89809 68.9988L0.115234 72.3528L0.633301 72.4717L0.667839 72.3259L0.671676 72.3374ZM16.8353 42.255L12.8482 39.6302L14.2604 37.4888C15.0739 36.2531 16.678 35.7888 17.9175 36.4297C18.0058 36.4757 18.1017 36.5294 18.1862 36.587C18.6582 36.9017 19.0304 37.3315 19.2607 37.838C19.6598 38.7053 19.5446 39.7952 18.9613 40.6855L18.1017 41.9902C17.8254 42.4124 17.2575 42.5313 16.8353 42.2512V42.255ZM12.4145 50.5709C12.7714 50.5978 13.0822 50.8281 13.2089 51.1658L15.2351 56.5805C15.2735 56.6803 15.2236 56.757 15.166 56.7954C15.1085 56.8338 15.0164 56.8453 14.9434 56.7724L8.37743 50.287L12.4184 50.5748L12.4145 50.5709Z" fill="#4B63A8"/>
<path d="M18.0441 31.9973C18.2743 31.7402 18.5967 31.5867 18.9421 31.5675C18.9651 31.5675 18.9881 31.5675 19.015 31.5675C19.3373 31.5675 19.6443 31.6864 19.8823 31.9013L26.8052 38.1181C27.0661 38.3522 27.2158 38.6707 27.235 39.0161C27.2541 39.3653 27.1352 39.6992 26.9049 39.9563L26.8052 40.0676L27.2004 40.4207L34.2922 32.5269L32.0395 30.5045L32.1547 30.9727C32.5307 32.523 32.1201 34.154 31.0571 35.3398L29.4684 37.1089C29.3072 37.2892 29.0808 37.3967 28.839 37.412C28.6088 37.4389 28.3594 37.343 28.179 37.1779L20.9683 30.704C20.4349 30.2243 20.3888 29.3993 20.8647 28.8697L20.9759 28.7584L20.5768 28.4015L17.5605 31.7594L17.9558 32.1124L18.0556 32.0011L18.0441 31.9973Z" fill="#4B63A8"/>
<path d="M26.5868 22.7412C26.8554 22.5225 27.1892 22.4265 27.5423 22.4534C27.8877 22.4879 28.1985 22.6529 28.4211 22.9254L34.3155 30.1208C34.5343 30.3894 34.6379 30.7271 34.6072 31.0763C34.5727 31.4217 34.4076 31.7325 34.1352 31.9551L34.02 32.051L34.3577 32.4617L42.2247 26.0146L42.3321 25.9302L40.2752 22.9254L39.8646 23.2593L39.9414 23.3705C40.8892 24.7751 40.6168 26.644 39.3043 27.7223L36.3878 30.1093L33.3562 26.4099C33.0376 26.0184 33.0952 25.4428 33.4828 25.1205L34.5074 24.28C35.344 23.597 36.5874 23.7159 37.2743 24.5563L37.3702 24.6715L37.7808 24.3376L34.7684 20.6613L34.3577 20.999L34.4537 21.1141C34.7876 21.5209 34.9411 22.0313 34.8912 22.557C34.8374 23.0789 34.588 23.5471 34.1812 23.8771L33.1566 24.7175C32.9686 24.871 32.7345 24.9516 32.4889 24.9209C32.2471 24.8979 32.0284 24.7789 31.871 24.5909L28.8471 20.903L31.5832 18.6619C32.8957 17.5874 34.7837 17.6872 35.9733 18.8922L36.0194 18.9382H36.1345L36.4837 18.6581L33.9395 16.0524L26.1416 22.4419L26.4793 22.8486L26.5944 22.7527L26.5868 22.7412Z" fill="#4B63A8"/>
<path d="M48.5598 13.8727C47.0363 16.3747 46.549 18.282 47.1169 19.5445C47.6081 20.6267 48.6059 21.2177 49.7955 21.2177C50.3596 21.2177 50.9698 21.0834 51.5876 20.8071C52.9308 20.2007 54.0974 18.6849 54.8073 16.628L56.0891 17.1921C56.2771 17.2765 56.3423 17.4454 56.3462 17.5836C56.3462 17.7562 56.2541 17.9021 56.0929 17.975L55.9547 18.0364L56.1697 18.5199L59.5966 16.9734L59.3817 16.4937L59.2473 16.5513C59.1591 16.5896 59.0631 16.5896 58.9749 16.5513L55.2295 14.951C55.4367 14.0262 55.5672 12.7176 55.5825 11.4205C55.5902 10.7758 55.9739 10.1886 56.5611 9.92001L56.6992 9.85861L56.4805 9.37892L52.4511 11.1941L52.3168 11.2555L52.5317 11.7352L52.6698 11.6738C53.2224 11.4282 53.8748 11.6738 54.1243 12.2264C54.1434 12.2647 54.1549 12.3031 54.1703 12.3415C54.462 13.2548 54.6193 14.0722 54.6308 14.6785L49.9529 12.6638C51.1003 10.7719 51.5569 9.67057 51.0888 8.63444C50.5745 7.53307 49.0434 7.21455 47.5352 7.88996C46.6564 8.28522 46.0117 8.93376 45.7162 9.70894C45.4745 10.346 45.4936 11.006 45.77 11.6162C46.2189 12.6178 47.1399 13.2126 48.5637 13.8727H48.5598ZM51.8908 19.4256C50.4517 20.0779 49.0319 19.6213 48.4447 18.3165C48.0149 17.361 48.1415 16.1176 48.8169 14.6133C48.909 14.4061 49.1163 14.2794 49.335 14.2794C49.4118 14.2794 49.4885 14.2948 49.5614 14.3255L53.775 16.1637C54.059 16.2865 54.1933 16.6088 54.0782 16.889C53.5793 18.14 52.8425 18.9919 51.8908 19.4217V19.4256ZM48.2643 8.26987C48.8285 8.26987 49.3811 8.65746 49.6766 9.306C50.091 10.227 50.0219 11.1672 49.4425 12.4221C48.0686 11.7697 47.4239 11.2401 47.0862 10.488C46.7025 9.63219 46.9864 8.7227 47.754 8.37732C47.919 8.30441 48.0917 8.26603 48.2643 8.26603V8.26987Z" fill="#4B63A8"/>
<path d="M63.6569 2.8206C64.6163 2.66709 65.5911 3.13527 66.0554 4.00255L71.4356 14.0377L71.4855 14.1336L73.6 13.7883L75.8373 0.483541L75.8718 0.280151L72.1801 0.886482L72.2645 1.40838L73.4004 1.22035C73.8341 1.15127 74.2524 1.28558 74.5632 1.59642C74.874 1.90726 75.0045 2.32939 74.9316 2.7592L73.3314 12.2916C73.3045 12.4336 73.197 12.5411 73.0627 12.5641C72.9936 12.5718 72.9246 12.5641 72.8632 12.5334C72.8018 12.5027 72.7519 12.4566 72.7173 12.3952L67.057 1.82668L67.0071 1.73074L63.5687 2.29485L63.4229 2.31788L63.5073 2.83978L63.6569 2.81676V2.8206Z" fill="#4B63A8"/>
<path d="M77.829 0.87496C78.5389 0.859609 79.1491 1.41221 79.1798 2.12599L79.529 11.4205C79.5405 11.7659 79.4177 12.0997 79.1837 12.3568C78.9496 12.6101 78.6272 12.7598 78.278 12.7713L78.1283 12.779L78.1475 13.3086L82.6605 13.1397L82.6413 12.7022L82.553 12.614H82.4878C82.4878 12.614 82.4571 12.614 82.4379 12.614C81.7433 12.614 81.1638 12.0614 81.137 11.3629L80.7877 2.06459C80.7762 1.71922 80.899 1.38535 81.1331 1.13207C81.371 0.878797 81.6896 0.729134 82.0349 0.717621H82.1884L82.1693 0.184204L77.6602 0.353056L77.6793 0.882635L77.829 0.87496Z" fill="#4B63A8"/>
<path d="M86.736 13.2164L86.7859 12.6907L86.6362 12.6754C85.9301 12.6063 85.4082 11.9769 85.4734 11.2708L86.3791 1.73456C86.3906 1.6156 86.4674 1.51966 86.5671 1.49664C86.6976 1.45826 86.8166 1.5235 86.8703 1.63862L92.2352 13.6654L92.2697 13.746L95.7235 14.0761L95.8731 14.0914L95.9192 13.5618L95.7695 13.5465C95.4203 13.5119 95.1056 13.3469 94.8831 13.0783C94.6605 12.8097 94.5569 12.4681 94.5876 12.1189L95.4664 2.87047C95.5009 2.52509 95.6659 2.21425 95.9345 1.99168C96.2032 1.77294 96.5409 1.65781 96.8862 1.70002L97.0397 1.72305L97.0896 1.18963L93.8239 0.878794L93.6742 0.863444L93.6243 1.38919L93.774 1.40454C94.4878 1.47361 95.0135 2.11064 94.9483 2.82442L94.0426 12.3607C94.035 12.4298 94.0043 12.4912 93.9467 12.5372C93.8968 12.5794 93.8277 12.5948 93.7587 12.5948C93.6704 12.5871 93.586 12.5257 93.5514 12.4451L88.1942 0.422128L88.1597 0.34154L84.5601 0L84.5102 0.525742L84.6599 0.541091C85.3737 0.610167 85.8994 1.2472 85.8342 1.96098L84.9515 11.2324C84.917 11.5778 84.752 11.8848 84.4872 12.1036C84.2224 12.3223 83.8847 12.4259 83.5201 12.3914H83.382L83.3359 12.9056L86.5787 13.2126L86.7283 13.228L86.736 13.2164Z" fill="#4B63A8"/>
<path d="M96.6137 13.769L96.4756 14.2833L106.277 16.9772L106.407 17.0156L107.674 13.604L107.163 13.462L107.113 13.5887C106.511 15.1736 104.83 16.0293 103.195 15.5842L99.561 14.5864L100.831 9.97373C100.962 9.4902 101.464 9.20623 101.956 9.33286L103.233 9.68592C104.277 9.97373 104.895 11.0559 104.607 12.1036L104.569 12.2494L105.075 12.3875L106.296 7.95135L106.338 7.80553L105.824 7.66738L105.785 7.80937C105.647 8.31592 105.317 8.73805 104.864 8.99516C104.408 9.25228 103.878 9.32135 103.375 9.1832L102.098 8.83015C101.86 8.76491 101.664 8.61525 101.545 8.40034C101.422 8.18544 101.395 7.93984 101.457 7.70575L102.723 3.10839L106.131 4.04475C107.746 4.49374 108.756 6.06329 108.487 7.71727L108.337 7.86693L108.967 8.03578L109.623 4.4592L99.9102 1.78828L99.7682 2.29868L99.914 2.33705C100.605 2.52509 101.012 3.24655 100.824 3.9373L98.356 12.9018C98.2639 13.2356 98.049 13.5158 97.7458 13.6885C97.4503 13.8573 97.0896 13.8995 96.7557 13.8113L96.6099 13.769H96.6137Z" fill="#4B63A8"/>
<path d="M124.977 24.6331C124.793 24.9286 124.505 25.1358 124.171 25.2164C123.833 25.297 123.48 25.2394 123.185 25.0591L123.058 24.9823L122.782 25.4313L126.374 27.6417L126.285 27.7377L128.772 30.0555L129.133 29.6679L129.025 29.5682C128.96 29.5068 128.903 29.4377 128.86 29.3609C128.818 29.2842 128.787 29.1998 128.768 29.1115C128.726 28.9081 128.784 28.7009 128.929 28.5474C129.045 28.4246 129.206 28.3517 129.375 28.3478L135.33 28.1406C135.53 28.1406 135.706 28.225 135.818 28.3862C135.929 28.5474 135.952 28.7508 135.875 28.9273L134.356 32.5845C134.218 32.9106 133.945 33.1409 133.6 33.2138C133.247 33.2867 132.909 33.1946 132.648 32.9529L132.541 32.8531L132.18 33.2407L135.495 36.3337L138.124 39.8297L138.212 39.9487L138.516 39.7223L138.661 39.6302L138.539 39.5074C138.109 38.9317 138.224 38.1105 138.796 37.6807L142.307 35.0405C142.541 35.405 142.649 35.8387 142.61 36.2723L141.785 42.9189C141.774 43.0763 141.658 43.1645 141.559 43.1914C141.463 43.2221 141.321 43.2067 141.225 43.0801L141.137 42.9611L140.711 43.2758L142.802 46.0542H142.806L144.748 49.8764L145.22 49.6346L145.151 49.5003C144.828 48.8633 145.085 48.0842 145.719 47.7657L148.854 46.177C149.23 45.9813 149.706 46.1348 149.898 46.5185C149.982 46.6912 150.001 46.8869 149.951 47.075L148.056 54.0362C148.025 54.1475 147.956 54.2051 147.898 54.232C147.76 54.301 147.564 54.2703 147.476 54.0938L147.407 53.9595L146.935 54.2013L148.278 56.853L151.264 66.4314L154.817 65.6524L154.656 65.1459L154.522 65.1727C152.864 65.522 151.233 64.5703 150.73 62.9508L149.61 59.355L154.177 57.9313C154.664 57.7817 155.174 58.0541 155.324 58.5338L155.719 59.8002C155.877 60.2991 155.827 60.8325 155.581 61.2968C155.335 61.7612 154.925 62.1027 154.426 62.2601L154.284 62.3061L154.445 62.8127L158.981 61.4005L158.824 60.8977L158.682 60.9438C158.175 61.1011 157.646 61.0512 157.181 60.8056C156.717 60.56 156.379 60.1494 156.222 59.6505L155.827 58.3842C155.754 58.1501 155.777 57.9045 155.888 57.6896C155.999 57.4747 156.191 57.3135 156.425 57.2406L160.977 55.8207L162.028 59.1977C162.531 60.8172 161.729 62.5287 160.155 63.1887L160.04 63.2463L160.198 63.7413L163.567 62.3637L160.612 52.885L160.566 52.743L160.059 52.9042L160.105 53.0462C160.209 53.3762 160.178 53.7292 160.017 54.0401C159.856 54.3471 159.584 54.5735 159.254 54.6771L150.374 57.444C150.043 57.5476 149.69 57.513 149.38 57.3557C149.153 57.2367 148.992 57.0449 148.869 56.8261C148.846 56.7379 148.838 56.6496 148.862 56.5613L151.199 47.9883L150.673 46.9598C150.627 46.8677 150.661 46.7833 150.707 46.7334C150.73 46.7104 150.815 46.6336 150.934 46.695L158.808 50.4482C158.931 50.498 159.035 50.5901 159.096 50.7129L159.165 50.8472L159.637 50.6093L158.068 47.5163L157.596 47.758L157.665 47.8924C157.726 48.0152 157.711 48.1571 157.623 48.2646C157.55 48.349 157.423 48.4258 157.27 48.3797L150.554 45.6935C150.481 45.6628 150.435 45.5975 150.431 45.5208C150.427 45.444 150.466 45.3711 150.539 45.3366L154.023 43.5713C154.334 43.414 154.683 43.3833 155.013 43.4945C155.343 43.6058 155.612 43.8322 155.765 44.1431L155.834 44.2774L156.306 44.0356L154.269 40.0177L153.797 40.2595L153.866 40.3938C154.023 40.7008 154.05 41.0539 153.942 41.3839C153.835 41.7139 153.605 41.9787 153.298 42.1361L145.001 46.342C144.364 46.6643 143.573 46.4111 143.247 45.7702L143.178 45.6359L143.144 45.6551L143.132 45.6397C143.052 45.5361 143.017 45.4095 143.028 45.2867L143.973 37.2739L144.115 37.462C144.978 38.5979 146.34 39.2157 147.66 39.066C148.34 38.9855 148.934 38.7399 149.38 38.3484C150.646 37.2355 150.846 35.3053 149.836 33.8508L145.945 28.6779L145.857 28.5589L145.435 28.8774L145.523 28.9964C145.734 29.2765 145.818 29.6142 145.768 29.9596C145.719 30.305 145.538 30.6081 145.262 30.8154L137.829 36.4105C137.253 36.8403 136.432 36.7251 136.002 36.1534L135.994 36.1418L136.021 36.115L135.91 36.0152C135.71 35.8272 135.572 35.5854 135.511 35.3168C135.453 35.0443 135.48 34.768 135.584 34.5147L140.296 23.2401L140.335 23.1441L138.113 21.0719L137.752 21.4595L137.863 21.5592C138.04 21.7204 138.139 21.9391 138.147 22.1771C138.155 22.415 138.07 22.6453 137.909 22.8179C137.84 22.8909 137.756 22.9561 137.66 23.006L128.373 27.7031C127.863 27.9564 127.249 27.8796 126.815 27.5151L126.903 27.3731L126.777 27.2963C126.166 26.9203 125.975 26.1144 126.351 25.5004L131.224 17.5797C131.408 17.2842 131.696 17.0732 132.034 16.9964C132.372 16.9158 132.721 16.9696 133.016 17.1538L133.143 17.2305L133.423 16.7777L130.94 15.2503L130.856 15.2043L122.03 20.8838C121.838 21.0066 121.596 21.0066 121.404 20.8838C121.254 20.7841 121.109 20.5807 121.155 20.312L122.835 10.3767L122.855 10.2769L119.919 8.47327L119.643 8.92226L119.769 8.99901C120.065 9.18321 120.272 9.46719 120.353 9.80873C120.433 10.1464 120.379 10.4956 120.195 10.795L115.322 18.7156C115.141 19.0111 114.853 19.2222 114.512 19.3028C114.178 19.3834 113.825 19.3258 113.529 19.1454L113.403 19.0648L113.126 19.5177L116.047 21.3136L116.323 20.8646L116.196 20.7879C115.897 20.6037 115.69 20.3159 115.613 19.9782C115.533 19.6366 115.59 19.2874 115.771 18.9919L120.683 11.006C120.732 10.9293 120.805 10.9485 120.825 10.9561C120.844 10.9638 120.913 10.9984 120.897 11.0866L118.917 22.841C118.894 22.9714 118.952 23.0981 119.063 23.171C119.113 23.2017 119.171 23.217 119.224 23.217C119.297 23.2094 119.355 23.1979 119.408 23.1672L129.743 16.5129C129.808 16.4668 129.866 16.5129 129.881 16.5282C129.896 16.5436 129.939 16.5973 129.896 16.6664L124.981 24.66L124.977 24.6331ZM148.455 36.9976C148.382 37.0667 148.301 37.1358 148.217 37.1972C147.768 37.5387 147.234 37.7383 146.678 37.7843C146.605 37.792 146.528 37.792 146.455 37.792C145.573 37.792 144.682 37.3276 144.091 36.5409L142.729 34.7296L147.28 31.3066L148.697 33.1908C149.587 34.3766 149.483 36.0459 148.455 36.9976ZM136.666 27.0316C136.528 27.3616 136.209 27.5803 135.852 27.5957L130.077 27.7952H130.069C129.969 27.7952 129.916 27.7261 129.896 27.6609C129.881 27.5957 129.896 27.5074 129.989 27.4575L138.216 23.2938L136.662 27.0316H136.666Z" fill="#4B63A8"/>
<path d="M160.9 66.4084L161.034 66.4008C161.103 66.3969 161.172 66.3931 161.241 66.3931C162.803 66.3931 164.158 67.506 164.446 69.0563L164.572 69.8545L154.1 71.5008C153.751 71.5584 153.409 71.4701 153.129 71.2668C152.849 71.0595 152.665 70.7602 152.611 70.4148L152.588 70.269L152.066 70.3457L152.745 74.663L152.768 74.8088L153.29 74.732L153.267 74.5824C153.156 73.8763 153.643 73.2047 154.353 73.0934L164.826 71.4471L164.949 72.2453C165.16 73.8801 164.112 75.419 162.515 75.8257L162.385 75.8603L162.466 76.3822L166 75.5072L164.469 65.7637L164.45 65.6294L160.819 65.8827L160.908 66.4046L160.9 66.4084Z" fill="#4B63A8"/>
<path d="M4.97329 80.8682C4.31708 81.0601 3.6954 81.5168 3.48817 82.1653C3.22338 82.9827 3.70307 83.9152 4.44372 84.3489C5.6487 85.0511 7.45234 84.6213 7.95889 83.2321C8.21601 82.5222 8.02413 81.6588 7.46001 81.1599C7.31035 81.0294 7.1415 80.9296 6.96113 80.8567C6.34329 80.6149 5.58346 80.684 4.97329 80.8644V80.8682Z" fill="#4B63A8"/>
</svg>
